<svg xmlns="http://www.w3.org/2000/svg" xmlns:xlink="http://www.w3.org/1999/xlink" width="1080" zoomAndPan="magnify" viewBox="0 0 810 809.999993" height="1080" preserveAspectRatio="xMidYMid meet" version="1.2"><defs><clipPath id="d542f76463"><path d="M 24.25 408 L 178 408 L 178 594 L 24.25 594 Z M 24.25 408 "/></clipPath><clipPath id="afad0118f5"><path d="M 213 26.945312 L 479 26.945312 L 479 782.945312 L 213 782.945312 Z M 213 26.945312 "/></clipPath><clipPath id="c7a32f010a"><path d="M 438 26.945312 L 781 26.945312 L 781 594 L 438 594 Z M 438 26.945312 "/></clipPath></defs><g id="2361d8466a"><g clip-rule="nonzero" clip-path="url(#d542f76463)"><path style=" stroke:none;fill-rule:evenodd;fill:#020619;fill-opacity:1;" d="M 24.316406 593.667969 C 24.316406 590.953125 24.375 588.238281 24.492188 585.527344 C 24.609375 582.816406 24.785156 580.105469 25.019531 577.402344 C 25.25 574.695312 25.542969 572 25.894531 569.304688 C 26.242188 566.613281 26.652344 563.929688 27.117188 561.257812 C 27.582031 558.582031 28.105469 555.917969 28.683594 553.265625 C 29.265625 550.613281 29.902344 547.976562 30.59375 545.351562 C 31.289062 542.726562 32.039062 540.117188 32.84375 537.527344 C 33.652344 534.933594 34.511719 532.359375 35.429688 529.804688 C 36.34375 527.25 37.316406 524.714844 38.34375 522.203125 C 39.367188 519.6875 40.449219 517.199219 41.582031 514.730469 C 42.714844 512.265625 43.902344 509.824219 45.140625 507.40625 C 46.378906 504.992188 47.667969 502.601562 49.007812 500.242188 C 50.347656 497.882812 51.738281 495.550781 53.179688 493.25 C 54.621094 490.949219 56.113281 488.683594 57.652344 486.445312 C 59.191406 484.210938 60.777344 482.007812 62.410156 479.839844 C 64.046875 477.671875 65.726562 475.539062 67.453125 473.445312 C 69.175781 471.347656 70.949219 469.289062 72.761719 467.269531 C 74.574219 465.25 76.433594 463.273438 78.332031 461.332031 C 80.230469 459.394531 82.171875 457.496094 84.152344 455.640625 C 86.136719 453.785156 88.15625 451.972656 90.214844 450.203125 C 92.273438 448.433594 94.371094 446.710938 96.503906 445.03125 C 98.636719 443.351562 100.804688 441.71875 103.011719 440.132812 C 105.214844 438.550781 107.449219 437.011719 109.71875 435.523438 C 111.992188 434.035156 114.292969 432.59375 116.625 431.203125 C 118.957031 429.816406 121.316406 428.476562 123.707031 427.1875 C 126.09375 425.898438 128.511719 424.664062 130.953125 423.476562 C 133.398438 422.292969 135.863281 421.164062 138.355469 420.085938 C 140.847656 419.007812 143.363281 417.984375 145.898438 417.011719 C 148.433594 416.042969 150.988281 415.128906 153.5625 414.269531 C 156.136719 413.410156 158.730469 412.605469 161.339844 411.855469 C 163.949219 411.109375 166.574219 410.417969 169.214844 409.78125 C 171.851562 409.148438 174.503906 408.570312 177.167969 408.046875 L 177.167969 593.667969 Z M 24.316406 593.667969 "/></g><g clip-rule="nonzero" clip-path="url(#afad0118f5)"><path style=" stroke:none;fill-rule:evenodd;fill:#00a7f5;fill-opacity:1;" d="M 402.507812 310.023438 L 402.507812 593.667969 C 402.507812 596.761719 402.433594 599.855469 402.28125 602.945312 C 402.128906 606.035156 401.902344 609.121094 401.597656 612.203125 C 401.296875 615.28125 400.917969 618.351562 400.460938 621.414062 C 400.007812 624.476562 399.480469 627.523438 398.875 630.558594 C 398.273438 633.59375 397.59375 636.613281 396.84375 639.613281 C 396.089844 642.617188 395.265625 645.597656 394.367188 648.558594 C 393.46875 651.519531 392.5 654.457031 391.457031 657.371094 C 390.414062 660.285156 389.300781 663.171875 388.113281 666.03125 C 386.929688 668.890625 385.675781 671.71875 384.355469 674.515625 C 383.03125 677.3125 381.640625 680.078125 380.179688 682.808594 C 378.722656 685.535156 377.195312 688.226562 375.605469 690.882812 C 374.015625 693.535156 372.359375 696.152344 370.640625 698.722656 C 368.921875 701.296875 367.140625 703.828125 365.296875 706.3125 C 363.453125 708.796875 361.550781 711.238281 359.585938 713.628906 C 357.625 716.019531 355.601562 718.363281 353.523438 720.65625 C 351.445312 722.949219 349.3125 725.191406 347.125 727.378906 C 344.9375 729.566406 342.695312 731.699219 340.402344 733.777344 C 338.109375 735.855469 335.765625 737.878906 333.375 739.839844 C 330.980469 741.804688 328.542969 743.707031 326.058594 745.550781 C 323.570312 747.394531 321.042969 749.175781 318.46875 750.894531 C 315.894531 752.613281 313.28125 754.269531 310.628906 755.859375 C 307.972656 757.453125 305.28125 758.976562 302.550781 760.4375 C 299.824219 761.894531 297.058594 763.285156 294.261719 764.609375 C 291.464844 765.933594 288.636719 767.1875 285.777344 768.371094 C 282.917969 769.554688 280.03125 770.667969 277.117188 771.710938 C 274.203125 772.753906 271.265625 773.722656 268.304688 774.621094 C 265.34375 775.519531 262.363281 776.34375 259.359375 777.097656 C 256.359375 777.847656 253.339844 778.527344 250.304688 779.128906 C 247.269531 779.734375 244.21875 780.261719 241.160156 780.71875 C 238.097656 781.171875 235.027344 781.550781 231.949219 781.855469 C 228.867188 782.15625 225.78125 782.382812 222.691406 782.535156 C 219.601562 782.6875 216.507812 782.765625 213.414062 782.765625 L 213.414062 310.023438 C 213.414062 305.570312 213.515625 301.117188 213.726562 296.671875 C 213.9375 292.222656 214.25 287.78125 214.667969 283.347656 C 215.085938 278.914062 215.609375 274.492188 216.238281 270.085938 C 216.863281 265.675781 217.59375 261.285156 218.425781 256.910156 C 219.261719 252.535156 220.195312 248.183594 221.234375 243.855469 C 222.273438 239.523438 223.414062 235.21875 224.65625 230.945312 C 225.898438 226.667969 227.238281 222.421875 228.679688 218.207031 C 230.121094 213.996094 231.660156 209.816406 233.296875 205.675781 C 234.9375 201.535156 236.671875 197.4375 238.5 193.378906 C 240.332031 189.316406 242.257812 185.304688 244.277344 181.335938 C 246.296875 177.367188 248.410156 173.449219 250.617188 169.578125 C 252.820312 165.710938 255.113281 161.894531 257.5 158.132812 C 259.882812 154.375 262.355469 150.671875 264.914062 147.027344 C 267.472656 143.382812 270.117188 139.800781 272.84375 136.277344 C 275.570312 132.757812 278.378906 129.304688 281.269531 125.917969 C 284.160156 122.53125 287.128906 119.210938 290.175781 115.964844 C 293.222656 112.714844 296.34375 109.542969 299.539062 106.441406 C 302.734375 103.339844 306 100.316406 309.339844 97.367188 C 312.679688 94.421875 316.082031 91.554688 319.558594 88.769531 C 323.03125 85.980469 326.566406 83.277344 330.167969 80.65625 C 333.769531 78.039062 337.429688 75.503906 341.148438 73.054688 C 344.871094 70.609375 348.644531 68.25 352.476562 65.980469 C 356.308594 63.710938 360.191406 61.53125 364.125 59.445312 C 368.058594 57.359375 372.039062 55.363281 376.066406 53.464844 C 380.09375 51.566406 384.164062 49.761719 388.277344 48.054688 C 392.386719 46.347656 396.539062 44.734375 400.726562 43.222656 C 404.914062 41.710938 409.136719 40.296875 413.390625 38.984375 C 417.648438 37.671875 421.929688 36.457031 426.242188 35.347656 C 430.554688 34.234375 434.890625 33.226562 439.25 32.316406 C 443.609375 31.410156 447.988281 30.605469 452.386719 29.90625 C 456.785156 29.203125 461.195312 28.605469 465.621094 28.113281 C 470.046875 27.617188 474.480469 27.230469 478.925781 26.945312 L 478.925781 217.214844 C 476.261719 217.734375 473.621094 218.367188 471.011719 219.117188 C 468.398438 219.863281 465.824219 220.722656 463.289062 221.695312 C 460.753906 222.664062 458.261719 223.742188 455.816406 224.925781 C 453.375 226.109375 450.984375 227.398438 448.652344 228.789062 C 446.320312 230.179688 444.050781 231.667969 441.84375 233.253906 C 439.640625 234.839844 437.507812 236.515625 435.449219 238.289062 C 433.386719 240.058594 431.40625 241.914062 429.507812 243.851562 C 427.605469 245.792969 425.792969 247.8125 424.066406 249.910156 C 422.339844 252.003906 420.707031 254.171875 419.167969 256.410156 C 417.628906 258.648438 416.1875 260.945312 414.847656 263.308594 C 413.503906 265.671875 412.265625 268.085938 411.132812 270.554688 C 410 273.019531 408.976562 275.535156 408.058594 278.089844 C 407.140625 280.648438 406.335938 283.238281 405.644531 285.863281 C 404.949219 288.488281 404.371094 291.140625 403.90625 293.816406 C 403.441406 296.492188 403.089844 299.183594 402.859375 301.890625 C 402.625 304.597656 402.507812 307.308594 402.507812 310.023438 Z M 402.507812 310.023438 "/></g><g clip-rule="nonzero" clip-path="url(#c7a32f010a)"><path style=" stroke:none;fill-rule:evenodd;fill:#020619;fill-opacity:1;" d="M 515.183594 26.945312 C 519.726562 27.234375 524.257812 27.628906 528.777344 28.136719 C 533.300781 28.640625 537.804688 29.253906 542.296875 29.976562 C 546.789062 30.699219 551.261719 31.53125 555.714844 32.46875 C 560.164062 33.40625 564.589844 34.449219 568.992188 35.597656 C 573.394531 36.75 577.765625 38.007812 582.109375 39.367188 C 586.449219 40.726562 590.753906 42.191406 595.027344 43.761719 C 599.296875 45.328125 603.527344 47 607.71875 48.769531 C 611.90625 50.542969 616.054688 52.414062 620.152344 54.386719 C 624.253906 56.355469 628.304688 58.425781 632.304688 60.589844 C 636.304688 62.757812 640.253906 65.019531 644.144531 67.375 C 648.035156 69.730469 651.871094 72.179688 655.644531 74.71875 C 659.417969 77.261719 663.128906 79.890625 666.777344 82.609375 C 670.425781 85.328125 674.003906 88.132812 677.515625 91.023438 C 681.03125 93.917969 684.472656 96.890625 687.839844 99.949219 C 691.210938 103.003906 694.503906 106.140625 697.722656 109.355469 C 700.941406 112.570312 704.082031 115.863281 707.140625 119.230469 C 710.203125 122.59375 713.179688 126.035156 716.074219 129.542969 C 718.96875 133.054688 721.777344 136.628906 724.5 140.277344 C 727.222656 143.921875 729.855469 147.628906 732.402344 151.402344 C 734.945312 155.171875 737.398438 159.003906 739.757812 162.890625 C 742.117188 166.78125 744.382812 170.726562 746.550781 174.726562 C 748.722656 178.722656 750.796875 182.773438 752.769531 186.871094 C 754.746094 190.96875 756.621094 195.113281 758.398438 199.300781 C 760.171875 203.488281 761.847656 207.71875 763.417969 211.988281 C 764.992188 216.257812 766.460938 220.5625 767.828125 224.902344 C 769.191406 229.242188 770.453125 233.613281 771.605469 238.011719 C 772.761719 242.414062 773.8125 246.839844 774.753906 251.289062 C 775.695312 255.742188 776.53125 260.210938 777.257812 264.703125 C 777.984375 269.195312 778.601562 273.699219 779.113281 278.222656 C 779.621094 282.742188 780.023438 287.273438 780.316406 291.8125 C 780.605469 296.351562 780.789062 300.898438 780.863281 305.445312 C 780.9375 309.996094 780.902344 314.542969 780.753906 319.089844 C 780.609375 323.636719 780.355469 328.179688 779.992188 332.714844 C 779.628906 337.25 779.15625 341.773438 778.574219 346.285156 C 777.992188 350.796875 777.300781 355.292969 776.503906 359.773438 C 775.707031 364.25 774.800781 368.707031 773.789062 373.144531 C 772.773438 377.578125 771.65625 381.988281 770.433594 386.371094 C 769.207031 390.75 767.878906 395.101562 766.445312 399.417969 C 765.011719 403.738281 763.472656 408.015625 761.832031 412.261719 C 760.195312 416.503906 758.453125 420.707031 756.609375 424.867188 C 754.769531 429.027344 752.828125 433.140625 750.789062 437.207031 C 748.746094 441.273438 746.609375 445.289062 744.378906 449.253906 C 742.144531 453.214844 739.816406 457.125 737.394531 460.976562 C 734.976562 464.828125 732.460938 468.617188 729.859375 472.347656 C 727.253906 476.082031 724.5625 479.746094 721.785156 483.347656 C 719.003906 486.949219 716.136719 490.480469 713.1875 493.945312 C 710.238281 497.410156 707.207031 500.800781 704.09375 504.117188 C 700.980469 507.433594 697.789062 510.675781 694.519531 513.839844 C 691.25 517.003906 687.90625 520.085938 684.488281 523.089844 C 681.070312 526.09375 677.585938 529.011719 674.027344 531.847656 C 670.46875 534.683594 666.84375 537.433594 663.152344 540.09375 C 659.464844 542.753906 655.710938 545.324219 651.898438 547.804688 C 648.082031 550.285156 644.210938 552.671875 640.28125 554.964844 C 636.355469 557.261719 632.371094 559.460938 628.339844 561.5625 C 624.304688 563.664062 620.21875 565.667969 616.089844 567.574219 C 611.957031 569.480469 607.785156 571.285156 603.566406 572.992188 C 599.347656 574.695312 595.089844 576.300781 590.796875 577.800781 C 586.5 579.300781 582.171875 580.695312 577.808594 581.988281 C 573.449219 583.28125 569.058594 584.46875 564.636719 585.546875 C 560.21875 586.628906 555.777344 587.601562 551.308594 588.46875 C 546.84375 589.335938 542.359375 590.09375 537.855469 590.746094 C 533.351562 591.398438 528.835938 591.941406 524.308594 592.375 C 519.78125 592.808594 515.242188 593.132812 510.699219 593.347656 C 506.15625 593.566406 501.605469 593.671875 497.058594 593.667969 L 438.753906 593.667969 L 438.753906 404.570312 L 497.058594 404.570312 C 498.511719 404.570312 499.964844 404.539062 501.414062 404.472656 C 502.867188 404.40625 504.316406 404.308594 505.761719 404.175781 C 507.210938 404.042969 508.652344 403.878906 510.09375 403.679688 C 511.53125 403.480469 512.964844 403.246094 514.394531 402.980469 C 515.824219 402.714844 517.246094 402.417969 518.660156 402.085938 C 520.074219 401.757812 521.480469 401.394531 522.878906 400.996094 C 524.277344 400.601562 525.664062 400.175781 527.042969 399.714844 C 528.421875 399.253906 529.789062 398.761719 531.144531 398.242188 C 532.5 397.71875 533.84375 397.164062 535.175781 396.578125 C 536.503906 395.996094 537.820312 395.378906 539.125 394.734375 C 540.425781 394.089844 541.710938 393.414062 542.980469 392.710938 C 544.253906 392.003906 545.507812 391.269531 546.742188 390.507812 C 547.980469 389.746094 549.199219 388.957031 550.398438 388.136719 C 551.601562 387.316406 552.78125 386.472656 553.941406 385.597656 C 555.105469 384.726562 556.246094 383.828125 557.367188 382.902344 C 558.484375 381.976562 559.582031 381.023438 560.660156 380.046875 C 561.734375 379.070312 562.789062 378.070312 563.820312 377.046875 C 564.847656 376.019531 565.855469 374.972656 566.835938 373.902344 C 567.820312 372.828125 568.773438 371.738281 569.707031 370.621094 C 570.636719 369.503906 571.542969 368.371094 572.421875 367.210938 C 573.300781 366.054688 574.152344 364.878906 574.976562 363.683594 C 575.800781 362.484375 576.597656 361.269531 577.367188 360.039062 C 578.136719 358.804688 578.875 357.554688 579.585938 356.285156 C 580.296875 355.019531 580.980469 353.738281 581.632812 352.4375 C 582.285156 351.140625 582.90625 349.828125 583.496094 348.5 C 584.085938 347.171875 584.648438 345.832031 585.175781 344.476562 C 585.707031 343.125 586.207031 341.761719 586.671875 340.382812 C 587.136719 339.007812 587.574219 337.621094 587.976562 336.226562 C 588.378906 334.828125 588.75 333.425781 589.085938 332.011719 C 589.425781 330.597656 589.730469 329.179688 590.003906 327.75 C 590.273438 326.324219 590.515625 324.890625 590.722656 323.453125 C 590.925781 322.015625 591.101562 320.570312 591.238281 319.125 C 591.378906 317.679688 591.488281 316.230469 591.558594 314.777344 C 591.632812 313.328125 591.671875 311.875 591.679688 310.421875 C 591.683594 308.96875 591.65625 307.515625 591.597656 306.066406 C 591.535156 304.613281 591.441406 303.164062 591.3125 301.714844 C 591.1875 300.269531 591.023438 298.824219 590.832031 297.382812 C 590.636719 295.945312 590.410156 294.507812 590.148438 293.082031 C 589.886719 291.652344 589.59375 290.226562 589.269531 288.8125 C 588.941406 287.394531 588.585938 285.988281 588.195312 284.589844 C 587.804688 283.1875 587.378906 281.800781 586.925781 280.417969 C 586.46875 279.039062 585.984375 277.671875 585.464844 276.3125 C 584.949219 274.953125 584.398438 273.609375 583.816406 272.277344 C 583.238281 270.945312 582.628906 269.628906 581.988281 268.324219 C 581.347656 267.019531 580.675781 265.730469 579.976562 264.457031 C 579.273438 263.183594 578.546875 261.925781 577.789062 260.6875 C 577.027344 259.449219 576.242188 258.226562 575.429688 257.023438 C 574.613281 255.820312 573.773438 254.636719 572.902344 253.472656 C 572.035156 252.308594 571.136719 251.164062 570.214844 250.039062 C 569.292969 248.917969 568.347656 247.816406 567.375 246.734375 C 566.402344 245.65625 565.40625 244.597656 564.382812 243.566406 C 563.363281 242.53125 562.316406 241.523438 561.25 240.539062 C 560.179688 239.550781 559.089844 238.589844 557.980469 237.65625 C 556.867188 236.722656 555.734375 235.8125 554.578125 234.929688 C 553.425781 234.046875 552.253906 233.191406 551.058594 232.363281 C 549.863281 231.53125 548.652344 230.730469 547.421875 229.960938 C 546.191406 229.1875 544.945312 228.441406 543.679688 227.726562 C 542.414062 227.011719 541.132812 226.324219 539.835938 225.667969 C 538.542969 225.011719 537.230469 224.386719 535.90625 223.789062 C 534.578125 223.195312 533.242188 222.628906 531.890625 222.09375 C 530.539062 221.5625 529.175781 221.058594 527.800781 220.585938 C 526.425781 220.117188 525.042969 219.675781 523.648438 219.269531 C 522.253906 218.859375 520.847656 218.484375 519.4375 218.144531 C 518.023438 217.800781 516.605469 217.492188 515.179688 217.214844 Z M 515.183594 26.945312 "/></g></g></svg>